<svg xmlns="http://www.w3.org/2000/svg" width="67.115" height="63.55" viewBox="0 0 67.115 63.55">
    <g id="Groupe_173" data-name="Groupe 173" transform="translate(-182.461 -270.001)">
        <path id="Tracé_256" data-name="Tracé 256" d="M249.43,303.008a3.832,3.832,0,0,0-.5-1.64l-.076-.148h0l-.076-.148a55.328,55.328,0,0,0-4.044-6.5l-.011-.011-.006-.011a2.952,2.952,0,0,1-.3-1.079c-.063-.5-.041-1-.069-1.268a1.442,1.442,0,0,0-.328-.631c-.169-.231-.382-.5-.6-.8-.317-.445-.655-.928-.924-1.313l-.342-.5a2.732,2.732,0,0,1-.154-.241c-.124-.217-.245-.369-.294-.486a.407.407,0,0,1-.024-.049l-.02-.048.01-.052a4.4,4.4,0,0,0,.09-.906v-.056a4.559,4.559,0,0,0-2.469-4.006c-.5-.286-.937-.552-1.338-.8l-.179-.114.152-.148a2.019,2.019,0,0,0,.6-1.431v-.027h0a2.06,2.06,0,0,0-.624-1.483l-.076-.069a31.092,31.092,0,0,0-21.773-8.851h-.031a31.122,31.122,0,0,0-21.808,8.882l-.018.014a2.08,2.08,0,0,0-.651,1.5v.048a2.028,2.028,0,0,0,.324,1.065l.1.155-.162.086c-.248.127-.576.3-.893.5a3.228,3.228,0,0,0-1.23,1.141c-.171.39-.159.569-.3.935a10.422,10.422,0,0,1-.569,1.165c-.214.4-.41.731-.485.9a1.842,1.842,0,0,0-.114.731,5.656,5.656,0,0,0,.058.772l.014.1-.083.059a4.967,4.967,0,0,0-2.027,4.082,5.755,5.755,0,0,0,.049.751l.007.069-.045.056c-.752.941-4.013,5.058-5.013,7.606-.056.152-.179.293-.3.534a2.069,2.069,0,0,0-.228.935v.065a1.986,1.986,0,0,0,.714,1.509l.2.176.035.032c.031.02.044.032.093.065s.131.093.259.172a8.017,8.017,0,0,1,3.107,3.348l0,0v.007c.007.018.018.041.025.058a.438.438,0,0,0,.114.169c.067.041.027.021.082.041a1.8,1.8,0,0,0,.224.037c.255.032.618.059.7.066h.045a.741.741,0,0,0,.1-.028l.107-.04.076.085c.028.031.052.059.076.08a3.09,3.09,0,0,0,2.193.757h0s.01,0,.01-.006v0l-.005-.011-.189-.1a3.375,3.375,0,0,1-.913-1.479l-.055-.138.131-.068a13.428,13.428,0,0,1,3.127-1.229l.059-.014.053.029a2.678,2.678,0,0,1,.881.6l.065.075-.038.094a5.3,5.3,0,0,0-.183.62,6.841,6.841,0,0,0-.185,1.555,5.45,5.45,0,0,0,.127,1.193l.024.107-.093.064s-.042.032-.117.094-.179.154-.293.268a2.972,2.972,0,0,0-.638.945l-.02.055-.052.031c-.051.028-.1.058-.151.086l-.159.089-.076-.169c-.065-.144-.128-.289-.183-.431a9.255,9.255,0,0,1-.378-1.234h0l-.013-.069a.011.011,0,0,0-.011-.01l-.011.007a4.483,4.483,0,0,0-.5,1.995h0c0,.1,0,.2.012.293l.023.269-.252-.1a.326.326,0,0,0-.132-.028h0a.355.355,0,0,0-.08.007.387.387,0,0,0-.257.2.471.471,0,0,0-.059.144v.007h0l0,0,0,0v.007a.181.181,0,0,0,0,.024c-.005.02-.01.055-.017.1-.014.082-.031.2-.05.351a9.428,9.428,0,0,0-.074,1.124,3.27,3.27,0,0,0,.657,2.261c.875.873,2.405,2.452,2.5,2.553v0l.014.014a1.793,1.793,0,0,0,.572.335l.2.072-.124.18a2.049,2.049,0,0,0-.358,1.155l0,.01h-.005l.007.011a2.052,2.052,0,0,0,.624,1.478l.074.07a31.069,31.069,0,0,0,18.334,8.661l.1.014.034.1a3.507,3.507,0,0,0,6.557.007l.034-.1.1-.011a31.116,31.116,0,0,0,18.432-8.688l.014-.015a3.029,3.029,0,0,0,.331-.465,2.118,2.118,0,0,0,.338-1.031v-.02a2.228,2.228,0,0,0-.342-1.138l-.121-.186.214-.066a1.6,1.6,0,0,0,.816-.523,1.2,1.2,0,0,0,.128-.2c.155-.3.4-.866.655-1.421a7.44,7.44,0,0,1,.72-1.32c.221-.283.855-.726.869-1.469v-.069a2.31,2.31,0,0,0-.248-.8c-.052-.113-.108-.209-.148-.283a.369.369,0,0,0-.032-.051l-.041-.076.031-.075a2.891,2.891,0,0,0,.217-1.107l0,0a3.935,3.935,0,0,0-.441-1.752l-.007,0h0l-.007.005h0l0,.007a.049.049,0,0,1,0,.018c0,.018-.007.042-.014.07-.018.062-.038.144-.065.247a7.959,7.959,0,0,1-.262.808,5.564,5.564,0,0,1-.369.8l-.094.166-.151-.11a5.594,5.594,0,0,1-2.087-4.547,4.532,4.532,0,0,1,.021-.471l.01-.1.094-.037a5.445,5.445,0,0,1,2.044-.373,7.849,7.849,0,0,1,1.562.169l.034.01.031.022c.079.058.159.119.241.178.041.027.083.058.124.087l.117.082-.058.128a5.229,5.229,0,0,1-.687,1.132,2.254,2.254,0,0,1-.414.4.741.741,0,0,1-.12.076.133.133,0,0,1-.031.015l-.014.007,0,.005h-.011l.014,0s0,.007.011.007h0a5.354,5.354,0,0,0,2.538-.769l.058-.038.072.019a1.281,1.281,0,0,0,.21.03c.052,0,.1.007.148.007h.025a1.614,1.614,0,0,0,1.22-.569c1.235-1.386,3.138-2.671,3.931-3.52a1.74,1.74,0,0,0,.472-1.049h-.007Z" transform="translate(-0.022 -0.022)" fill="#ffc200"/>
        <path id="Tracé_257" data-name="Tracé 257" d="M246.521,299.3s-.121.49-1.465-.4c0,0,.814,1.049,1.41,1.214S246.735,299.48,246.521,299.3Zm-1.245-2s-.018.6-1.165.183a2.577,2.577,0,0,0,1.334,1.027C246.28,298.694,245.732,297.794,245.277,297.3Zm-.479-.725a6.416,6.416,0,0,1-1.638-3.782c-.3-1.968-4.547,0-4.547,0-2.089.521-2.9-.024-3.2-.424,0-.011-.089-.072-.041.041a2.6,2.6,0,0,0,3.679,1.23l.463.462a2.564,2.564,0,0,1-.056-1.235c.1-.034.266-.1.455-.155a.737.737,0,0,1,.141.486c.011.231-.124.541-.124.738a.32.32,0,0,0,.139.269,3.057,3.057,0,0,0,1.017-1.414c.124.034.244.072.362.11-.231,1.21-1.041,1.734-1.5,1.6l-.065-.021c-1.476.672-.6.862-.6.862a4.459,4.459,0,0,0,2.335-.832c.41.2.834,1.19.834,1.19a4.684,4.684,0,0,1,1.227.458C244.439,296.887,244.8,296.58,244.8,296.58Zm-51.97,5.431c-.034-.186-2.883.572-5.206,2.468,0,0-.522.4-.49.583.069.354.486.126.593.02C189.538,303.3,192.862,302.2,192.828,302.011Zm33.313,17.69.817,1.749,1.072,1.892-.007.02-2.886-3.2-.624.293,2.29,4.908.649-.3-.842-1.8-.865-1.6-.186-.3.007-.017,2.91,3.248.6-.284-2.286-4.909ZM186.2,297.933c-.259.434-.483.8-.709,1.223l0,0c-.237.455-.617,1.183-.779,1.517a1.777,1.777,0,0,0,1.4-.365,17.419,17.419,0,0,1,1.41-4.355c-.386.483-.966,1.4-1.327,1.983Zm2.348,7.909s-.42.344-.4.5c.049.3.385.1.472.014,1.465-1.531,4.127-2.5,4.1-2.655A8.5,8.5,0,0,0,188.552,305.841Zm18.233-23.449,1.986-.859-2.973-6.9-1.989.859.041.089Zm15.1-5.427,1.738,5,1.979.669,2.41-7.117-2.051-.693-1.337,3.948-1.738-4.99-1.982-.673-2.407,7.12,2.051.693Zm-8.626,3.768h.006c.146,0,.3-.007.448-.02a3.95,3.95,0,0,0,3.748-4.031c0-.145-.007-.3-.02-.448a3.951,3.951,0,0,0-4.058-3.469c-.134,0-.269.007-.407.02a4.016,4.016,0,0,0-3.765,3.862c0,.114,0,.231.013.352A3.95,3.95,0,0,0,213.257,280.734Zm-.09-5.879a1.566,1.566,0,0,1,.179-.011h0a1.884,1.884,0,0,1,1.888,1.6h0c.007.072.01.145.01.217a1.92,1.92,0,0,1-1.727,1.979,1.464,1.464,0,0,1-.176.011,1.958,1.958,0,0,1-1.917-1.852c0-.049-.005-.093-.005-.138A1.91,1.91,0,0,1,213.167,274.856Zm13.8,7.8a4.62,4.62,0,0,0,1.686,2.227,3.407,3.407,0,0,0,1.914.645,2.1,2.1,0,0,0,.255-.014,2.589,2.589,0,0,0,1.827-1.234,1.968,1.968,0,0,0,.383-1.128,2.769,2.769,0,0,0-.731-1.682l-.311-.389a2.067,2.067,0,0,1-.3-.459.58.58,0,0,1-.051-.228c0-.214.162-.331.413-.337a.8.8,0,0,1,.452.152,1.848,1.848,0,0,1,.71,1.075l.034.121,1.72-.924-.041-.083a5.073,5.073,0,0,0-1.586-1.872h0a2.792,2.792,0,0,0-1.583-.523,2.457,2.457,0,0,0-2.044,1.138,2.1,2.1,0,0,0-.441,1.2,2.924,2.924,0,0,0,.893,1.765c.2.238.534.642.527.938a.382.382,0,0,1-.065.217.507.507,0,0,1-.438.23.983.983,0,0,1-.528-.186,2.492,2.492,0,0,1-.9-1.534l-.027-.121-1.8.928Zm-24.987,3.162,3.417-2.8-1.189-1.455-1.741,1.427-3.572-4.362L197.217,280l.065.076Zm44.006,14.557c1.293,1.4,1.31.5,1.31.5C246.99,301.091,245.984,300.373,245.984,300.373ZM249.576,303a4.249,4.249,0,0,0-.593-1.878h0a55.309,55.309,0,0,0-4.141-6.675,2.841,2.841,0,0,1-.276-1.013c-.058-.483-.042-.973-.069-1.272a1.623,1.623,0,0,0-.358-.707c-.172-.235-.383-.5-.6-.8-.317-.445-.655-.924-.924-1.314s-.476-.693-.489-.724c-.128-.221-.255-.4-.287-.472a.363.363,0,0,0-.02-.045,4.765,4.765,0,0,0,.089-.941v-.028a4.718,4.718,0,0,0-2.551-4.179c-.493-.286-.935-.548-1.331-.8a2.207,2.207,0,0,0,.651-1.562v-.017h0a2.24,2.24,0,0,0-.679-1.607l-.072-.062a31.259,31.259,0,0,0-21.891-8.9H216a31.3,31.3,0,0,0-21.918,8.923l-.025.021a2.259,2.259,0,0,0-.7,1.621h0v.02a2.221,2.221,0,0,0,.348,1.186c-.25.127-.581.307-.9.51a3.325,3.325,0,0,0-1.3,1.214c-.179.414-.169.6-.3.941a10.6,10.6,0,0,1-.561,1.145c-.214.394-.407.725-.489.911a2.015,2.015,0,0,0-.132.8,5.715,5.715,0,0,0,.063.8,5.133,5.133,0,0,0-2.1,4.217,6.758,6.758,0,0,0,.048.772c-.755.948-4.016,5.054-5.041,7.657a2.954,2.954,0,0,0-.532,1.521v.018a2.151,2.151,0,0,0,.771,1.686l.207.182.041.031a3.24,3.24,0,0,0,.36.245,7.868,7.868,0,0,1,3.043,3.272.423.423,0,0,0,.031.084.586.586,0,0,0,.158.221.325.325,0,0,0,.135.068,1.631,1.631,0,0,0,.255.045c.286.034.717.065.72.065h.063a.589.589,0,0,0,.145-.038c.027.031.051.059.082.09a3.269,3.269,0,0,0,2.311.808h0a.18.18,0,0,0,.176-.159.182.182,0,0,0-.141-.2h0c-.056-.018-.486-.228-.976-1.476a13.277,13.277,0,0,1,3.086-1.214,2.573,2.573,0,0,1,.828.562,6.6,6.6,0,0,0-.252,3.464,3.527,3.527,0,0,0-1.107,1.386c-.052.028-.1.056-.152.083-.065-.141-.124-.282-.176-.42a9.15,9.15,0,0,1-.388-1.28.178.178,0,0,0-.333-.044,4.682,4.682,0,0,0-.524,2.072c0,.11.007.212.014.307a.585.585,0,0,0-.2-.038.468.468,0,0,0-.11.014.552.552,0,0,0-.375.275.737.737,0,0,0-.076.2v.009a9.782,9.782,0,0,0-.148,1.643,3.4,3.4,0,0,0,.7,2.375c.9.9,2.506,2.554,2.509,2.558l.018.017a2.007,2.007,0,0,0,.624.369,2.206,2.206,0,0,0-.39,1.249v.02h0a2.232,2.232,0,0,0,.68,1.6l.072.065a31.264,31.264,0,0,0,18.432,8.71,3.674,3.674,0,0,0,6.868.006,31.287,31.287,0,0,0,18.539-8.74l.018-.018a3.4,3.4,0,0,0,.348-.488,2.257,2.257,0,0,0,.362-1.118.128.128,0,0,0,0-.024,2.3,2.3,0,0,0-.365-1.223,1.83,1.83,0,0,0,.9-.58,1.406,1.406,0,0,0,.145-.235c.159-.31.4-.872.662-1.427a7.45,7.45,0,0,1,.7-1.289c.172-.238.883-.732.9-1.569a.532.532,0,0,0,0-.079,2.43,2.43,0,0,0-.262-.866,2.81,2.81,0,0,0-.154-.293c-.011-.02-.021-.038-.031-.055a2.988,2.988,0,0,0,.227-1.171,4.133,4.133,0,0,0-.458-1.829.18.18,0,0,0-.334.042,7.685,7.685,0,0,1-.338,1.122,6.158,6.158,0,0,1-.358.783,5.662,5.662,0,0,1-2-4.865,6.121,6.121,0,0,1,3.51-.194c.079.062.161.121.244.179.042.031.083.063.128.09a5.391,5.391,0,0,1-.662,1.1,2.259,2.259,0,0,1-.387.373c-.045.03-.076.05-.1.062l-.025.01h0a.184.184,0,0,0-.11.207.186.186,0,0,0,.177.138h.013a5.53,5.53,0,0,0,2.614-.8,2.088,2.088,0,0,0,.4.041h.021a1.773,1.773,0,0,0,1.348-.62c1.214-1.365,3.107-2.644,3.927-3.52a1.918,1.918,0,0,0,.528-1.32V303h0Zm-54.67-23.138.049-.045A30.039,30.039,0,0,1,216,271.246h.031a30.042,30.042,0,0,1,21.049,8.568l.051.045a1.009,1.009,0,0,1,.3.714.987.987,0,0,1-.3.71l-.562.555a.61.61,0,0,0-.169.438.6.6,0,0,0,.014.139l0,0a3.554,3.554,0,0,1,.1.861,3.662,3.662,0,0,1-4.437,3.572h-.011l-.024-.007a.556.556,0,0,0-.148-.02.609.609,0,0,0-.439.186l-.006,0-.5.507a.985.985,0,0,1-.72.317.975.975,0,0,1-.724-.32,19.184,19.184,0,0,0-6.948-4.437,18.838,18.838,0,0,0-13.077,0,19.1,19.1,0,0,0-6.961,4.441.977.977,0,0,1-1.444,0l-.5-.507-.011-.011a.594.594,0,0,0-.434-.179.557.557,0,0,0-.148.02l-.027.007h-.007a3.656,3.656,0,0,1-4.336-4.434l0,0a.658.658,0,0,0-.155-.576l-.561-.555a.987.987,0,0,1-.3-.71A1,1,0,0,1,194.906,279.858Zm37.885,9.292a2.861,2.861,0,0,0,1.172,2.241C233.544,291.382,232.044,291.619,232.792,289.15Zm.628,11.55a17.4,17.4,0,1,1-5.1-12.305A17.336,17.336,0,0,1,233.419,300.7Zm-43.194,7.923a2.56,2.56,0,0,1-1.5-.655c-.025-.028-.021-.028-.045-.056l.1-.069s.179-.13.517-.335c.072-.045.154-.093.242-.141A4.518,4.518,0,0,0,190.225,308.623Zm1.241,1.735a7.076,7.076,0,0,0,1.148,2.42,1.751,1.751,0,0,1-.807.221,1.25,1.25,0,0,1-.425-.077,3.131,3.131,0,0,1-.2-1.117A4.075,4.075,0,0,1,191.466,310.358Zm2.344,3.72a.992.992,0,0,0-.051.552s-.9-.148-1.1-.5a10.644,10.644,0,0,0,.2,1.507,11.805,11.805,0,0,1-1.355-1.706,7.566,7.566,0,0,0,.6,2.558s-1.177-.859-1.085-3.213h0a1.8,1.8,0,0,0,.4.155h0a1.544,1.544,0,0,0,.183.031c.011,0,.021,0,.031,0a1.476,1.476,0,0,0,.173.011,2.273,2.273,0,0,0,1.086-.306c.1.01.193.017.283.017a1.362,1.362,0,0,0,1.065-.445,1.517,1.517,0,0,0,.165-.248,3.021,3.021,0,0,0,.541.048,2.36,2.36,0,0,0,1.645-.631,2.414,2.414,0,0,0,.434-.534,2.248,2.248,0,0,0,1.679-1.452l.011-.037v-.042a6.841,6.841,0,0,0-1.579-4.372l-.049-.049-.065-.014a8.29,8.29,0,0,0-1.789-.193c-.139,0-.276,0-.414.011-.033,0-.065,0-.1,0-.135.01-.269.017-.4.03h0c-.135.015-.266.031-.4.049-.034.007-.067.011-.1.014-.128.02-.255.041-.38.066h-.006c-.128.023-.256.051-.38.079l-.1.02c-.122.031-.243.058-.36.09l-.007,0c-.12.032-.237.065-.355.1-.031.011-.058.017-.09.027-.113.034-.223.07-.334.107l-.007,0c-.114.038-.224.076-.331.118l-.083.03c-.1.038-.207.08-.307.121h-.005c-.1.042-.2.082-.3.128l-.072.03c-.094.042-.186.084-.276.121,0,0,0,0-.005,0-.091.045-.181.087-.267.129-.021.009-.041.019-.064.03-.08.041-.156.08-.232.117a.022.022,0,0,1-.014.007c-.076.041-.15.079-.221.121l-.062.03-.179.1-.021.01c-.389.221-.662.4-.789.486l-.983-.121c-.051-.11-.107-.214-.162-.32l-.033-.058c-.054-.1-.112-.2-.171-.292-.01-.019-.02-.035-.031-.053-.058-.093-.119-.186-.179-.275-.005,0-.009-.01-.014-.018-.064-.094-.131-.183-.2-.272-.012-.014-.023-.032-.036-.044-.065-.091-.135-.173-.2-.256-.01-.011-.017-.02-.024-.027-.069-.083-.141-.162-.21-.242a.036.036,0,0,1-.014-.014c-.072-.078-.148-.155-.221-.23l-.031-.032c-.072-.072-.148-.147-.224-.217h0l.383-.14a2.461,2.461,0,0,1,2.209-1.708,4.081,4.081,0,0,1,.3-2.26l-.9.8a6.773,6.773,0,0,0-4.214,1.6h0a1.728,1.728,0,0,1-.3-.6.427.427,0,0,1-.012-.045c-.005-.024-.011-.051-.014-.076l-.01-.069a.46.46,0,0,1-.007-.055c0-.041-.007-.083-.007-.124a1.781,1.781,0,0,1,.214-.807,2.294,2.294,0,0,1,.148-.238c.038-.055.062-.075.058-.075l.032-.035.013-.041a25.7,25.7,0,0,1,2.928-4.848c1.145-1.583,2.155-2.817,2.158-2.82l.065-.079-.015-.107a5.814,5.814,0,0,1-.074-.9,4.34,4.34,0,0,1,1.706-3.521c.1-.072.173-.124.228-.158l.076-.045.136-.072-.107-1.438a24.326,24.326,0,0,0,1.557-3.451c.138-.069.267-.141.393-.214.041-.021.079-.045.121-.066.083-.048.165-.1.245-.145.045-.027.085-.051.128-.079.072-.044.141-.089.21-.134.038-.024.076-.049.114-.076.069-.045.134-.086.2-.131l.1-.065c.065-.048.127-.09.19-.135a.785.785,0,0,1,.069-.048l.4-.3.139.141a4.569,4.569,0,0,0-.089.906l0,.011a14.979,14.979,0,0,1-1.7.745l-.955,1.882s1.2-.1,1.555,1.607a5.987,5.987,0,0,1,1.914-1.645c.051.073.107.146.162.218a3.207,3.207,0,0,0-1.272,1.679l.451.2a7.9,7.9,0,0,1,1.725-1.006,4.6,4.6,0,0,0,.55.344,4.444,4.444,0,0,0-1.419,1.063l.3.3s1.357-.755,1.606.7-1.3,1.707-1.755,1.707a1.963,1.963,0,0,0,.6,1.1,2.646,2.646,0,0,1-2.912,0,3.988,3.988,0,0,0-3.75-.49,1.94,1.94,0,0,0-.215,1.651,2.161,2.161,0,0,0-.861,1.266,2.163,2.163,0,0,1-.8,1.089,4.191,4.191,0,0,0,3.215-1.458s1.1,1.207,2.762-.852c0,0,1.3,1.155,3.413-.152a3.767,3.767,0,0,1-2.761,1.055,5.287,5.287,0,0,1,1.154,1.607,3.945,3.945,0,0,0-2.21-.756,3.948,3.948,0,0,0,.9,1.859,3.225,3.225,0,0,0-2.561-.452,5.717,5.717,0,0,0,3.667,2.31,3.65,3.65,0,0,0-1.255.755,2.577,2.577,0,0,0,2.158.1s-1.355.752-1.959,1a5.227,5.227,0,0,0,2.862-.3c0,.093,0,.186,0,.279s0,.155,0,.235a3.34,3.34,0,0,1-.351,1.293,4.9,4.9,0,0,0-1.807-1,3.611,3.611,0,0,1,.452,3.113s.376.582,1.858.516c.117,0,.217,0,.307,0a18.7,18.7,0,0,0,2.2,5.493,5.2,5.2,0,0,1-.8.221l.9.5a17.931,17.931,0,0,1-2.11.6,5.13,5.13,0,0,0,.655.552,8.5,8.5,0,0,1-2.462.756,2.305,2.305,0,0,0,.6.451s-1.155.3-1.507.1l-.1.8S194.059,314.429,193.81,314.078Zm1.521-7.383a.628.628,0,0,1,.7-.058c.386.3.1.573-.207,1.145-.493.93.166,1.569-.313,2.5s-1.079,1.192-1.295,1.027c-.322-.245.154-.759.313-1.168C194.872,309.259,194.109,307.989,195.331,306.7Zm-2.945-13.918s.026-.011.057-.021c.1.034.188.069.247.09.134,1.02-.056,1.514-.49,1.637-.462.132-1.272-.393-1.5-1.6.1-.038.214-.069.327-.1a2.794,2.794,0,0,0,.937,1.472.181.181,0,0,0,.087-.169C192.026,293.726,191.927,292.968,192.386,292.778Zm44.916,28.6c-.038.048-.124.152-.155.193a28.905,28.905,0,0,1-18.666,8.492,2.467,2.467,0,0,1-4.921,0,28.9,28.9,0,0,1-18.665-8.492c-.029-.042-.116-.145-.157-.193a.852.852,0,0,1-.165-.569,1.274,1.274,0,0,1,.448-.824c.19-.2.438-.441.438-.441a.822.822,0,0,0,.135-.235.556.556,0,0,0,0-.272,3.593,3.593,0,0,1,3.486-4.517,3.528,3.528,0,0,1,.9.11.518.518,0,0,0,.268,0,.409.409,0,0,0,.286-.172c.049-.049.307-.338.538-.548a1,1,0,0,1,1.637.091,17.287,17.287,0,0,0,5.927,3.991,18.872,18.872,0,0,0,14.754,0A17.267,17.267,0,0,0,229.33,314a1.138,1.138,0,0,1,.859-.474,1.1,1.1,0,0,1,.779.383,5.968,5.968,0,0,1,.538.548.4.4,0,0,0,.287.172.608.608,0,0,0,.272,0,3.476,3.476,0,0,1,.893-.11,3.61,3.61,0,0,1,3.607,3.618,3.52,3.52,0,0,1-.117.9.5.5,0,0,0,0,.272.828.828,0,0,0,.134.235s.269.262.438.441a1.292,1.292,0,0,1,.448.824A.852.852,0,0,1,237.3,321.38Zm3.558-10.572a3.5,3.5,0,0,1,.221,1.2,2.76,2.76,0,0,1-.155.927c-.011.024-.017.044-.027.07l-.162.048a2.584,2.584,0,0,1-.617.089,1.89,1.89,0,0,1-.427-.062A5.7,5.7,0,0,0,240.86,310.809Zm-.783,2.808a3.549,3.549,0,0,0,.617-.052,4.531,4.531,0,0,1,.238.534c.138.583-.114.631-.255.69-1.472.594-1.521,2.515-2.379,2.159-1.021-.425.214-3.241.214-3.241s-2,.741-2.417.424.355-1.2.355-1.2-1.734.434-2.086.191.259-1.139.259-1.139-1.186.565-1.714.282.5-1.275.5-1.275-1.132.473-1.483.189a.326.326,0,0,1-.09-.306,18.194,18.194,0,0,0,1.276-2.33v.013c-.014.072-.028.149-.038.224h0a5.288,5.288,0,0,0-.063.765,1.841,1.841,0,0,0,.366,1.253,10.017,10.017,0,0,0,2.779,1.737A10.3,10.3,0,0,0,240.077,313.616Zm-1.879-1.363a3.152,3.152,0,0,1-2.041-1.62c-.718-1.318.362-1.5-.476-2.1s-.989-1.39-.3-1.621c.358-.117.658-.058,1.259.3s.479.958.538,2.7A3.008,3.008,0,0,0,238.2,312.254Zm3.127-3.465a4.943,4.943,0,0,0,.8-1.251,4.078,4.078,0,0,0,1.131.527A4.637,4.637,0,0,1,241.325,308.788Zm7.437-5.671,0,0c0,.038-.007.076-.013.11l-.576-.465-.306.308a3.09,3.09,0,0,0-2.607-.921l-1.431.921a2.394,2.394,0,0,1,2.414,2.606l-.007.007c-.141.117-.282.241-.425.366-.013.012-.031.023-.044.037-.132.117-.262.235-.39.356-.01.01-.024.02-.034.03-.131.125-.255.246-.379.369-.028.027-.056.056-.079.083-.124.125-.249.252-.362.383a.979.979,0,0,1-.763.351,2.94,2.94,0,0,1-1.438-.561c-.114-.077-.23-.155-.341-.235a12.115,12.115,0,0,0-1.49-1.052,8.345,8.345,0,0,0-2.72-.423c-.079,0-.162,0-.241,0-.038,0-.076,0-.117,0l-.124.005-.158.011c-.028,0-.056,0-.086.007-.062,0-.124.011-.186.017-.018,0-.038,0-.058.008-.07.007-.139.017-.207.027-.011,0-.024,0-.034.006-.076.011-.155.026-.231.038h-.013a5.794,5.794,0,0,0-2.414,1.018c.087-.261.166-.528.238-.793a9.081,9.081,0,0,1,5.075-.776,10.971,10.971,0,0,0-3.644-.327l-.376-.448a5.473,5.473,0,0,0-.8.531c.045-.2.087-.393.121-.592a4.462,4.462,0,0,1,1.141-.493l.41-1.33a7.164,7.164,0,0,1-1.266-.6c.014-.238.02-.476.024-.714.928.407,1.7.752,2.007.907,0,0-.307-.973,1.431-1.176,0,0-1.6-.273-3.444-.638,0-.134-.011-.273-.018-.407,2.306.282,4.6.186,6.02-.848a10.635,10.635,0,0,1-2.61.155,5.674,5.674,0,0,0,2.4-1.689,6.236,6.236,0,0,1-3.065.462,8.346,8.346,0,0,0,2.4-1.737,12.929,12.929,0,0,1-3.731.868,7.629,7.629,0,0,0,2.045-1.176l-1.876.155.507-.765s-2.465-.721-2.975-2.765l.906.11s-.751-2.751.873-3.541a8.64,8.64,0,0,0-1.662-.624,7.834,7.834,0,0,1,2.455.2,1.809,1.809,0,0,0-.517-.546,3.913,3.913,0,0,0-.879-.451s1.893-.1,2.455.458a5.891,5.891,0,0,0-1.024-1.379,4.5,4.5,0,0,1,1.789,1.124l.462-.051a5.4,5.4,0,0,0-.613-1.942,4.953,4.953,0,0,1,1.482,1.993,1.438,1.438,0,0,0,1.352.407l-.021.065.031.076a6.792,6.792,0,0,0,.387.8,3.268,3.268,0,0,0,.917,1.109,6.08,6.08,0,0,0,.358.807,3.2,3.2,0,0,0,1.031,1.221v.028a11.4,11.4,0,0,0,.072,1.324,2.928,2.928,0,0,0,.445,1.424,54.68,54.68,0,0,1,4.058,6.551,3.491,3.491,0,0,1,.5,1.506C248.766,303.038,248.766,303.08,248.762,303.117Zm-32.741-18.256A15.838,15.838,0,1,0,231.858,300.7,15.84,15.84,0,0,0,216.021,284.861Zm9.137,25.2H209.536v-2.075h.7a1.384,1.384,0,0,0,1.372-1.4l-.013-13.414a1.386,1.386,0,0,0-1.386-1.386h-.656v-1.569h9.065V291.8h-.724a1.4,1.4,0,0,0-1.392,1.4l-.006,14.34h4.528a1.173,1.173,0,0,0,1.121-1.224c-.018-.19-.038-.472-.038-.672a3.119,3.119,0,0,1,1.727-2.769l1.024,1.025a2.665,2.665,0,0,0,.307,4.178Zm-36.965-4.92s-.472.379-.445.552c.059.335.432.114.531.013,1.641-1.692,4.627-2.762,4.6-2.934S190.292,303.334,188.194,305.138Zm45.071,15.529L230.185,317l-.552.463,3.483,4.149,1.472-1.239-.4-.479Zm-17.546,1.462-1.083,5.434.7-.015.183-1.058,1.076-.018.221,1.052.724-.013-1.257-5.393Zm.762,3.787-.862.012.383-2.755.015,0,.307,1.967Zm3.006-4.059-2.358.293.076.618.841-.1.583,4.754.714-.087-.583-4.755.8-.1Zm-3.467,6.472a1.508,1.508,0,1,0,1.508,1.51A1.51,1.51,0,0,0,216.02,328.328Zm0,2.7a1.19,1.19,0,1,1,1.192-1.19A1.192,1.192,0,0,1,216.02,331.028Zm6.6-9.974c-1.328.43-.783,2.147-.479,3.078s.872,2.637,2.2,2.207.783-2.148.479-3.078S223.941,320.623,222.617,321.054Zm1.507,4.645c-.538.175-.906-.711-1.262-1.8s-.576-2.024-.038-2.2.911.711,1.266,1.8S224.665,325.522,224.124,325.7Zm-32.761-28.669c-.141,2.838,2.225,1.893,2.225,1.893A4.272,4.272,0,0,1,191.363,297.029Zm36.6,21.608,1.961,5.182.59-.383-.407-1,.9-.587.745.776.606-.393-3.923-3.91Zm.807.726,1.3,1.5.549.58-.725.469-1.138-2.541Zm-8.754,2.4,1.031,5.317.707-.138-1.034-5.314Zm-3.668,8.1a.454.454,0,0,0,.291-.448c0-.313-.24-.526-.64-.53a1.1,1.1,0,0,0-.479.1l-.027.012v1.667h.331v-.706h.093a.2.2,0,0,1,.207.142l.272.564h.369l-.313-.644A.785.785,0,0,0,216.346,329.865Zm-.385-.192h-.139v-.47a.929.929,0,0,1,.176-.017c.235,0,.3.09.307.238C216.3,329.607,216.208,329.663,215.961,329.673ZM239.095,301.4c-.024.117.624.262,1.448.769a25.571,25.571,0,0,1,2.827,2.265c.1.069-.014.217-.041.194-2.838-2.2-5.627-2.531-5.6-2.166.014.148.644.152,1.438.445a18.263,18.263,0,0,1,3.9,2.086c.079.051-.014.138-.062.128-3.283-1.158-6.254-1.827-6.216-1.425.013.169.944.186,2.089.507,1.583.445,3.655,1.237,5.027,1.758.042-.012.228.052.628-.289.318-.3.273-.449.273-.449C241.715,301.863,239.171,301,239.095,301.4Zm-37.86,15.078-3.621,4.023.53.479,3.624-4.024Zm2.545,1.986-1.109,1.582-1.1,1.876-.019,0,1.326-4.1-.566-.4-3.106,4.438.59.411,1.141-1.628.951-1.552.169-.313.019,0-1.357,4.144.545.383,3.106-4.438Zm-9.346-15.543a2.525,2.525,0,0,0-1.413-1.661,3.853,3.853,0,0,1,.313,3.534,2.859,2.859,0,0,0,1.9-.47,3.609,3.609,0,0,0-.748-3.247A5.164,5.164,0,0,1,194.434,302.917Zm19,21.021-.133,2.172-.013.01-.68-4.247-.682-.1-.756,5.36.711.1.279-1.97.145-1.816.007-.351.018-.014.668,4.306.662.094.756-5.361-.714-.1Zm-3.419-2.634-.831-.221-1.4,5.231.693.186.687-2.562.013,0,.259,2.814.721.193-.282-2.8c.6.047.951-.662,1.082-1.152C211.309,321.68,210.526,321.443,210.019,321.3Zm.162,1.645c-.141.528-.41.811-.921.638l.463-1.727.11.028C210.363,322.015,210.316,322.449,210.181,322.949Zm-2.6.7.235-.58-1-.406.636-1.58,1.125.455.235-.58-1.794-.723-2.027,5.021,1.792.723.232-.579-1.124-.456.689-1.7Zm-1.183-2.983.293-.552-2.1-1.113-.293.552.748.4-2.248,4.23.635.338,2.248-4.23Z" transform="translate(0)" fill="#00428b"/>
    </g>
</svg>
